<svg width="18" height="25" viewBox="0 0 18 25" fill="none" xmlns="http://www.w3.org/2000/svg">
<path d="M8.77344 11.875C7.94464 11.875 7.14978 11.5458 6.56373 10.9597C5.97768 10.3737 5.64844 9.5788 5.64844 8.75C5.64844 7.9212 5.97768 7.12634 6.56373 6.54029C7.14978 5.95424 7.94464 5.625 8.77344 5.625C9.60224 5.625 10.3971 5.95424 10.9831 6.54029C11.5692 7.12634 11.8984 7.9212 11.8984 8.75C11.8984 9.16038 11.8176 9.56674 11.6606 9.94589C11.5035 10.325 11.2733 10.6695 10.9831 10.9597C10.693 11.2499 10.3485 11.4801 9.96932 11.6371C9.59018 11.7942 9.18382 11.875 8.77344 11.875ZM8.77344 0C6.45279 0 4.2272 0.921872 2.58625 2.56282C0.94531 4.20376 0.0234375 6.42936 0.0234375 8.75C0.0234375 15.3125 8.77344 25 8.77344 25C8.77344 25 17.5234 15.3125 17.5234 8.75C17.5234 6.42936 16.6016 4.20376 14.9606 2.56282C13.3197 0.921872 11.0941 0 8.77344 0Z" fill="#18357C"/>
</svg>
