<svg width="27" height="26" viewBox="0 0 27 26" fill="none" xmlns="http://www.w3.org/2000/svg">
<path d="M10.5056 0.280029C16.0166 0.280029 20.5056 4.76903 20.5056 10.28C20.5056 12.675 19.6666 14.867 18.2556 16.593L26.2246 24.56L24.7866 26L16.8186 18.031C15.0388 19.4901 12.8071 20.2851 10.5056 20.28C4.99461 20.28 0.50561 15.791 0.50561 10.28C0.50561 4.76903 4.99461 0.280029 10.5056 0.280029ZM10.5056 2.28003C6.07561 2.28003 2.50561 5.85003 2.50561 10.28C2.50561 14.71 6.07561 18.28 10.5056 18.28C14.9356 18.28 18.5056 14.71 18.5056 10.28C18.5056 5.85003 14.9356 2.28003 10.5056 2.28003ZM10.5056 5.28003C11.5665 5.28003 12.5839 5.70146 13.334 6.4516C14.0842 7.20175 14.5056 8.21916 14.5056 9.28003C14.5056 12.28 10.5056 16.28 10.5056 16.28C10.5056 16.28 6.50561 12.28 6.50561 9.28003C6.50561 8.21916 6.92704 7.20175 7.67718 6.4516C8.42733 5.70146 9.44474 5.28003 10.5056 5.28003ZM10.5056 7.28003C10.2393 7.27401 9.97441 7.32125 9.72659 7.419C9.47876 7.51675 9.25296 7.66302 9.06244 7.84923C8.87192 8.03545 8.72052 8.25784 8.61714 8.50337C8.51375 8.7489 8.46046 9.01261 8.46039 9.27902C8.46033 9.54543 8.51349 9.80916 8.61675 10.0547C8.72001 10.3003 8.8713 10.5228 9.06172 10.7091C9.25215 10.8954 9.47788 11.0418 9.72565 11.1397C9.97343 11.2375 10.2383 11.2849 10.5046 11.279C11.0272 11.2675 11.5244 11.0518 11.89 10.6782C12.2555 10.3046 12.4603 9.80271 12.4604 9.28002C12.4605 8.75733 12.256 8.25536 11.8907 7.88156C11.5253 7.50776 11.0282 7.29185 10.5056 7.28003Z" fill="#18357C"/>
</svg>
